<svg id="2cf41747-0c0c-4d70-aad4-093c093adad4" data-name="Layer 1"
    xmlns="http://www.w3.org/2000/svg" width="1022.84" height="813.16" viewBox="0 0 1022.84 813.16">
    <defs>
        <linearGradient id="3cf802be-0480-4c68-848a-073112220499" x1="635.22" y1="545.34"
            x2="635.22" y2="43.42" gradientUnits="userSpaceOnUse">
            <stop offset="0" stop-color="gray" stop-opacity="0.25" />
            <stop offset="0.54" stop-color="gray" stop-opacity="0.12" />
            <stop offset="1" stop-color="gray" stop-opacity="0.1" />
        </linearGradient>
    </defs>
    <title>book lover</title>
    <path
        d="M688.44,180.84c-64.72-2.25-126.37-23.14-185.23-46S386.05,86.65,322.88,74.54c-40.63-7.79-87.1-8.89-119.83,12.89-31.51,21-41.69,57.15-47.16,90.73-4.12,25.26-6.54,51.84,4.75,75.49,7.83,16.42,21.74,30.22,31.35,46,33.47,54.72,9.82,122.2-26.45,175.63-17,25.07-36.75,49-49.87,75.66s-19.2,57.25-7.72,84.47c11.39,27,38.52,47.24,67.9,61.49,59.69,28.95,130,37.23,198.61,41.92,151.83,10.39,304.46,5.89,456.69,1.39,56.34-1.67,112.92-3.36,168.34-12.07,30.78-4.84,62.55-12.51,84.9-31.05,28.36-23.53,35.39-63.38,16.39-92.88-31.89-49.49-120-61.78-142.32-114.9-12.26-29.23.34-61.79,18.16-88.91,38.24-58.16,102.33-109.19,105.71-175.67,2.32-45.67-28.5-91.39-76.14-113C956.26,89,887,91.88,850.18,129.37,812.24,168,745.58,182.82,688.44,180.84Z"
        transform="translate(-88.58 -43.42)" fill="#cfcfd0" opacity="0.1" />
    <polygon
        points="435.45 690.5 93.17 688.83 59.16 609.06 179.42 600.33 158.46 512.87 396.32 482.04 168.55 402.86 188.67 398.08 554.92 457.83 534.75 594.32 505.92 669.33 435.45 690.5"
        fill="#cfcfd0" />
    <path d="M187,698.84s21-3.36,33.6,11.48c0,0-9.24,7.28-29.12-2.8Z"
        transform="translate(-88.58 -43.42)" fill="#cfcfd0" />
    <path d="M184.8,698.51S171.4,715,178,733.36c0,0,10.92-4.37,12.11-26.63Z"
        transform="translate(-88.58 -43.42)" fill="#cfcfd0" />
    <path d="M172.76,671.4s8.4-15.41,42,6.16c0,0-4.48,10.36-19.32,9.52S176.68,679.52,172.76,671.4Z"
        transform="translate(-88.58 -43.42)" fill="#cfcfd0" />
    <path d="M170.59,670.29s-17.43-2-19.12,37.9c0,0,11.05,2.29,18.9-10.33S175,678.16,170.59,670.29Z"
        transform="translate(-88.58 -43.42)" fill="#cfcfd0" />
    <path d="M160.44,638.46s9.8-27.16,45.36-7.84c0,0-8.12,24.92-41.72,17.08Z"
        transform="translate(-88.58 -43.42)" fill="#cfcfd0" />
    <path d="M149.52,597.86s18.48-27.44,51.24-2c0,0-11.48,25.76-48.44,11.76Z"
        transform="translate(-88.58 -43.42)" fill="#cfcfd0" />
    <path d="M145.6,559.22s21.56-25.21,54,0c0,0-20.44,22.12-54,6.44Z"
        transform="translate(-88.58 -43.42)" fill="#cfcfd0" />
    <path d="M142.24,521.69s21.84-26.32,52.92-1.4c0,0-24.64,23.24-52.92,7.56Z"
        transform="translate(-88.58 -43.42)" fill="#cfcfd0" />
    <path d="M144.2,488.37s23-33.88,52.08-10.92c0,0-24.64,29.12-52.08,17.36Z"
        transform="translate(-88.58 -43.42)" fill="#cfcfd0" />
    <path d="M149.52,449.45s24.36-33.6,52.64-7.84c0,0-28.84,29.12-52.64,14Z"
        transform="translate(-88.58 -43.42)" fill="#cfcfd0" />
    <path d="M157.64,414.66s28.84-31.58,54-19c0,0-30.05,33.54-55.26,27.38Z"
        transform="translate(-88.58 -43.42)" fill="#cfcfd0" />
    <path d="M167.72,381.68S201,343,220.36,355.92c0,0-24.52,30-55,33Z"
        transform="translate(-88.58 -43.42)" fill="#cfcfd0" />
    <path d="M182.27,343.43s29.13-31.58,50.41-23.74c0,0-24.92,32.76-54.32,33.6Z"
        transform="translate(-88.58 -43.42)" fill="#cfcfd0" />
    <path d="M195.44,307.65s32.2-30.24,46.2-24.92c0,0-23.24,33.6-47.6,31.64Z"
        transform="translate(-88.58 -43.42)" fill="#cfcfd0" />
    <path d="M208.32,274.61s27.72-36.13,42.85-33.33c0,0-16.81,32.21-42.85,37Z"
        transform="translate(-88.58 -43.42)" fill="#cfcfd0" />
    <path d="M222.3,230.06s24.5-27.69,37.74-27.63c0,0-19.34,37-38.75,36.66Z"
        transform="translate(-88.58 -43.42)" fill="#cfcfd0" />
    <path d="M230.58,200.4l23.67-57.68s1.18,52.14-26.68,68.38Z" transform="translate(-88.58 -43.42)"
        fill="#cfcfd0" />
    <path d="M240.19,136.79s3.92-48.17,1.4-52.09c0,0,16.92,40.05-1.56,73.37Z"
        transform="translate(-88.58 -43.42)" fill="#cfcfd0" />
    <path d="M159.52,637.82s-24.54-15.21-40.43,22c0,0,21.84,14.5,43.32-12.51Z"
        transform="translate(-88.58 -43.42)" fill="#cfcfd0" />
    <path d="M148.73,596.31s-30.1-13.73-44.7,25.12c0,0,23.25,16,47.44-15.3Z"
        transform="translate(-88.58 -43.42)" fill="#cfcfd0" />
    <path d="M144.2,561.53s-21.56-25.21-54,0c0,0,20.44,22.12,54,6.44Z"
        transform="translate(-88.58 -43.42)" fill="#cfcfd0" />
    <path d="M141.5,521.69s-21.84-26.32-52.92-1.4c0,0,24.64,23.24,52.92,7.56Z"
        transform="translate(-88.58 -43.42)" fill="#cfcfd0" />
    <path d="M144.2,489.33s-15.32-37.95-48.62-21.63c0,0,18,33.65,47.26,27.93Z"
        transform="translate(-88.58 -43.42)" fill="#cfcfd0" />
    <path d="M151.45,449.26s-15.23-38.61-49-20.71c0,0,20.68,35.39,47.5,26.67Z"
        transform="translate(-88.58 -43.42)" fill="#cfcfd0" />
    <path d="M160.89,414.85s-6-42.33-34-46.12c0,0,5.94,44.64,30.23,53.75Z"
        transform="translate(-88.58 -43.42)" fill="#cfcfd0" />
    <path d="M168.43,381.76s-2.34-51-25.49-52.78c0,0,.78,38.71,22.88,60Z"
        transform="translate(-88.58 -43.42)" fill="#cfcfd0" />
    <path d="M184.67,342s-6.9-42.41-29-47.59c0,0,2.74,41.07,26.81,58Z"
        transform="translate(-88.58 -43.42)" fill="#cfcfd0" />
    <path d="M198.06,308s-.23-44.18-13.73-50.67c0,0-8.37,40,9.82,56.31Z"
        transform="translate(-88.58 -43.42)" fill="#cfcfd0" />
    <path d="M209.35,274.11s-1.89-45.49-15.87-51.9c0,0-4.78,36,13.78,54.88Z"
        transform="translate(-88.58 -43.42)" fill="#cfcfd0" />
    <path d="M224.25,233.69s-.08-37-10.06-45.68c0,0-9.92,40.53,4.85,53.12Z"
        transform="translate(-88.58 -43.42)" fill="#cfcfd0" />
    <path d="M229.41,198.58,219.7,137s-13.19,50.46,10.17,72.7Z" transform="translate(-88.58 -43.42)"
        fill="#cfcfd0" />
    <path d="M231.3,137.37s-24.92-41.4-24.41-46c0,0,2.65,43.39,34,65Z"
        transform="translate(-88.58 -43.42)" fill="#cfcfd0" />
    <path d="M234.22,125.14s-23.52-58.8-34.16-63.56c0,0,33.6,17.08,36.12,61.88Z"
        transform="translate(-88.58 -43.42)" fill="#cfcfd0" />
    <path
        d="M221.17,239.44l-1.61-.49c19.85-64.73,24.8-106,13.95-116.35l1.15-1.22C246.17,132.3,241.5,173.12,221.17,239.44Z"
        transform="translate(-88.58 -43.42)" fill="#444053" />
    <path
        d="M166.51,391l-2.38-.85c2.11-5.93,4.38-11.95,6.76-17.88,20.72-51.64,38.36-99.68,49.67-136.56l2.07-1c-11.33,36.95-28.66,86.83-49.4,138.54C170.86,379.07,168.6,385.06,166.51,391Z"
        transform="translate(-88.58 -43.42)" fill="#444053" />
    <path
        d="M216.59,747.28c-.32-.35-32.49-36.58-54.92-98.43A364.18,364.18,0,0,1,140,536.07c-1.54-48.13,8.56-101.87,25.86-150.69l1.88,2.2c-38.84,109.57-23.41,203.46-2.94,260,22.19,61.29,54,97.12,54.31,97.48Z"
        transform="translate(-88.58 -43.42)" fill="#444053" />
    <path d="M719.31,670.36s-22.67,27.67-4.67,69.5l-181,78.5L516.27,822l-8-35,5.35-44.17V718.69Z"
        transform="translate(-88.58 -43.42)" fill="#d5d6db" />
    <polygon points="59.16 609.06 309.68 563.39 641.63 616.27 435.45 690.5 59.16 609.06"
        fill="#cfcfd0" />
    <polygon points="59.16 609.06 309.68 563.39 641.63 616.27 435.45 690.5 59.16 609.06"
        fill="#cfcfd0" />
    <path d="M147.74,652.47s-23.43,44.39,3.57,85.39l371.5,80.5S499.75,783,524,733.92Z"
        transform="translate(-88.58 -43.42)" fill="#cfcfd0" />
    <path d="M147.74,652.47s-23.43,44.39,3.57,85.39l371.5,80.5S499.75,783,524,733.92Z"
        transform="translate(-88.58 -43.42)" opacity="0.1" />
    <path d="M158.81,667.86s-13.39,32.48,0,53.5" transform="translate(-88.58 -43.42)"
        opacity="0.1" />
    <path d="M522.81,818.36l207.4-88.5s11.6,2.5,4.1,11-207.5,86-207.5,86l-375.5-89Z"
        transform="translate(-88.58 -43.42)" fill="#cfcfd0" />
    <path d="M522.81,818.36l207.4-88.5s11.6,2.5,4.1,11-207.5,86-207.5,86l-375.5-89Z"
        transform="translate(-88.58 -43.42)" opacity="0.1" />
    <path d="M505.81,742.86s-20,24,0,60" transform="translate(-88.58 -43.42)" opacity="0.1" />
    <rect x="510.68" y="757.36" width="94.57" height="1"
        transform="translate(-299.77 172.15) rotate(-18.45)" opacity="0.1" />
    <rect x="509.35" y="759.86" width="115.23" height="1"
        transform="translate(-321.85 207.81) rotate(-20.82)" opacity="0.1" />
    <rect x="508.7" y="764.61" width="133.56" height="1"
        transform="translate(-335.51 231.58) rotate(-22.26)" opacity="0.1" />
    <rect x="508.37" y="766.53" width="153.74" height="1"
        transform="translate(-352.49 265.59) rotate(-24.31)" opacity="0.1" />
    <rect x="509.21" y="768.64" width="168.15" height="1"
        transform="translate(-346.96 258.59) rotate(-23.61)" opacity="0.1" />
    <rect x="510.33" y="769.26" width="201.22" height="1"
        transform="translate(-343.72 261.93) rotate(-23.36)" opacity="0.1" />
    <polygon points="152.23 613.94 328.23 576.94 435.45 597.44 291.23 643.94 152.23 613.94"
        fill="#fff" opacity="0.3" />
    <path d="M730.21,659.69s9.1,3.67,3.76,9.34S524,733.92,524,733.92Z"
        transform="translate(-88.58 -43.42)" fill="#cfcfd0" />
    <path d="M818.6,574.18s-22.66,27.66-4.66,69.5l-181,78.5-17.37,3.66-8-35L613,646.68V622.51Z"
        transform="translate(-88.58 -43.42)" fill="#d5d6db" />
    <polygon points="158.46 512.87 408.97 467.21 740.93 520.09 534.75 594.32 158.46 512.87"
        fill="#3a3768" />
    <path d="M247,556.29s-23.44,44.39,3.56,85.39l371.5,80.5s-23.05-35.39,1.23-84.45Z"
        transform="translate(-88.58 -43.42)" fill="#3a3768" />
    <path d="M247,556.29s-23.44,44.39,3.56,85.39l371.5,80.5s-23.05-35.39,1.23-84.45L505.81,612.3Z"
        transform="translate(-88.58 -43.42)" opacity="0.1" />
    <path d="M258.1,571.68s-13.38,32.47,0,53.5" transform="translate(-88.58 -43.42)"
        opacity="0.1" />
    <path d="M622.1,722.18l207.41-88.5s11.59,2.5,4.09,11-207.5,86-207.5,86l-375.5-89Z"
        transform="translate(-88.58 -43.42)" fill="#3a3768" />
    <path d="M622.1,722.18l207.41-88.5s11.59,2.5,4.09,11-207.5,86-207.5,86l-375.5-89Z"
        transform="translate(-88.58 -43.42)" opacity="0.1" />
    <path d="M605.1,646.68s-20,24,0,60" transform="translate(-88.58 -43.42)" opacity="0.1" />
    <rect x="609.97" y="661.18" width="94.57" height="1"
        transform="translate(-264.22 198.64) rotate(-18.45)" opacity="0.1" />
    <rect x="608.65" y="663.68" width="115.23" height="1"
        transform="translate(-281.17 236.83) rotate(-20.82)" opacity="0.1" />
    <rect x="608" y="668.43" width="133.56" height="1"
        transform="translate(-291.68 262.02) rotate(-22.26)" opacity="0.1" />
    <rect x="607.66" y="670.34" width="153.74" height="1"
        transform="translate(-304.07 297.94) rotate(-24.31)" opacity="0.1" />
    <rect x="608.51" y="672.45" width="168.15" height="1"
        transform="translate(-300.13 290.3) rotate(-23.61)" opacity="0.1" />
    <rect x="609.63" y="673.07" width="201.22" height="1"
        transform="translate(-297.44 293.41) rotate(-23.36)" opacity="0.1" />
    <polygon points="251.53 517.76 427.53 480.76 534.75 501.26 390.53 547.76 251.53 517.76"
        fill="#fff" opacity="0.45" />
    <path d="M829.51,563.51s9.09,3.67,3.76,9.33-209.94,64.89-209.94,64.89Z"
        transform="translate(-88.58 -43.42)" fill="#3a3768" />
    <path d="M828,464.15s-22.67,49.67-4.67,91.5l-181,56.5L625,615.82l-8-35,5.35-44.17V512.48Z"
        transform="translate(-88.58 -43.42)" fill="#d5d6db" />
    <polygon points="167.89 402.85 418.41 357.18 750.37 410.06 544.18 484.29 167.89 402.85"
        fill="#cfcfd0" />
    <path d="M256.47,446.26S233,490.65,260,531.65l371.5,80.5s-23.06-35.39,1.22-84.44Z"
        transform="translate(-88.58 -43.42)" fill="#cfcfd0" />
    <path d="M256.47,446.26S233,490.65,260,531.65l371.5,80.5s-23.06-35.39,1.22-84.44Z"
        transform="translate(-88.58 -43.42)" opacity="0.1" />
    <path d="M267.54,461.65s-13.39,32.48,0,53.5" transform="translate(-88.58 -43.42)"
        opacity="0.1" />
    <path d="M631.54,612.15l207.4-66.5s11.6,2.5,4.1,11-207.5,64-207.5,64l-375.5-89Z"
        transform="translate(-88.58 -43.42)" fill="#cfcfd0" />
    <path d="M631.54,612.15l207.4-66.5s11.6,2.5,4.1,11-207.5,64-207.5,64l-375.5-89Z"
        transform="translate(-88.58 -43.42)" opacity="0.1" />
    <path d="M614.54,536.65s-20,24,0,60" transform="translate(-88.58 -43.42)" opacity="0.1" />
    <rect x="619.41" y="551.15" width="94.57" height="1"
        transform="translate(-228.91 195.97) rotate(-18.45)" opacity="0.1" />
    <rect x="618.08" y="553.65" width="115.23" height="1"
        transform="translate(-241.44 233) rotate(-20.82)" opacity="0.1" />
    <rect x="617.43" y="558.4" width="133.56" height="1"
        transform="translate(-249.3 257.4) rotate(-22.26)" opacity="0.1" />
    <rect x="617.1" y="560.32" width="153.74" height="1"
        transform="translate(-257.94 292.06) rotate(-24.31)" opacity="0.1" />
    <rect x="617.95" y="562.43" width="168.15" height="1"
        transform="translate(-255.27 284.87) rotate(-23.61)" opacity="0.1" />
    <rect x="619.07" y="563.05" width="201.22" height="1"
        transform="translate(-253.04 288.14) rotate(-23.36)" opacity="0.1" />
    <polygon points="260.96 407.73 436.96 370.73 544.18 391.23 399.96 437.73 260.96 407.73"
        fill="#fff" opacity="0.3" />
    <path d="M838.94,453.48s9.1,3.67,3.76,9.34-209.94,64.89-209.94,64.89Z"
        transform="translate(-88.58 -43.42)" fill="#cfcfd0" />
    <path
        d="M399,149.92s-38-2.29-33.56,24.37c0,0-.89,4.71,3.38,6.85,0,0,.07-2,3.9-1.31a17.05,17.05,0,0,0,4.14.2,8.62,8.62,0,0,0,5.05-2.08h0s10.69-4.42,14.85-21.9c0,0,3.08-3.81,3-4.79L393.32,154s2.19,4.63.47,8.48c0,0-.21-8.31-1.45-8.12-.25,0-3.33,1.61-3.33,1.61s3.77,8.07.92,13.93c0,0,1.08-9.94-2.1-13.35l-4.52,2.64s4.41,8.33,1.42,15.13c0,0,.77-10.43-2.37-14.49l-4.1,3.2s4.15,8.21,1.62,13.85c0,0-.33-12.14-2.5-13.06,0,0-3.59,3.16-4.13,4.46,0,0,2.84,6,1.07,9.11,0,0-1.07-8.09-2-8.13,0,0-3.57,5.36-3.94,9a19.46,19.46,0,0,1,3.07-9.54,10.71,10.71,0,0,0-5.46,2.83s.55-3.79,6.35-4.12c0,0,2.95-4.07,3.74-4.31,0,0-5.77-.49-9.26,1.06,0,0,3.08-3.57,10.31-2l4-3.3s-7.58-1-10.8.11c0,0,3.71-3.16,11.89-.86l4.41-2.63s-6.47-1.39-10.32-.89c0,0,4.06-2.19,11.61.18l3.14-1.41s-4.73-.93-6.12-1.08-1.46-.53-1.46-.53a16.51,16.51,0,0,1,8.9,1S399.13,150.34,399,149.92Z"
        transform="translate(-88.58 -43.42)" fill="#cfcfd0" />
    <path
        d="M933.6,259.5s-38-2.29-33.56,24.37c0,0-.89,4.71,3.38,6.85,0,0,.07-2,3.9-1.31a17.62,17.62,0,0,0,4.14.2,8.59,8.59,0,0,0,5-2.08h0s10.7-4.42,14.85-21.9c0,0,3.08-3.81,3-4.79l-6.42,2.74s2.19,4.63.47,8.48c0,0-.21-8.31-1.44-8.12-.25,0-3.34,1.61-3.34,1.61s3.77,8.07.93,13.93c0,0,1.08-9.94-2.11-13.35l-4.52,2.64s4.41,8.33,1.42,15.13c0,0,.77-10.43-2.37-14.49l-4.09,3.2s4.14,8.21,1.61,13.85c0,0-.33-12.14-2.5-13.06,0,0-3.58,3.16-4.13,4.46,0,0,2.84,6,1.08,9.11,0,0-1.08-8.09-2-8.13,0,0-3.57,5.36-3.94,9a19.4,19.4,0,0,1,3.08-9.54,10.76,10.76,0,0,0-5.47,2.83s.56-3.79,6.35-4.12c0,0,2.95-4.07,3.74-4.32,0,0-5.76-.48-9.26,1.07,0,0,3.08-3.57,10.31-2l4-3.3s-7.59-1-10.8.11c0,0,3.7-3.16,11.89-.86l4.4-2.63s-6.47-1.39-10.32-.89c0,0,4.06-2.19,11.61.18l3.15-1.41s-4.74-.93-6.13-1.08-1.46-.53-1.46-.53a16.39,16.39,0,0,1,8.9,1S933.72,259.92,933.6,259.5Z"
        transform="translate(-88.58 -43.42)" fill="#cfcfd0" opacity="0.1" />
    <path
        d="M463,314.62s-16.56-34.33-37.64-17.41c0,0-4.55,1.52-4.33,6.29,0,0,1.75-.91,3,2.77a17.72,17.72,0,0,0,1.84,3.7,8.63,8.63,0,0,0,4.29,3.4h0s9.07,7.18,26.36,2.28c0,0,4.83.83,5.62.25l-5.52-4.27s-3,4.17-7.18,4.54c0,0,7.16-4.23,6.39-5.21-.16-.2-3-2.13-3-2.13s-5.21,7.23-11.71,7.6c0,0,9.2-3.9,10.62-8.35l-4.5-2.66s-5.13,7.92-12.52,8.62c0,0,9.48-4.41,11.49-9.13l-4.78-2s-5.15,7.62-11.31,8.17c0,0,10.44-6.21,10.18-8.56,0,0-4.51-1.58-5.91-1.43,0,0-3.82,5.39-7.42,5.39,0,0,6.53-4.89,6.13-5.68,0,0-6.42-.5-9.8,1a19.47,19.47,0,0,1,9.83-2,10.77,10.77,0,0,0-5.14-3.39s3.58-1.36,6.69,3.53c0,0,5,.59,5.59,1.16,0,0-2.39-5.26-5.44-7.55,0,0,4.62.93,6.73,8l4.85,1.92s-2.79-7.12-5.36-9.37c0,0,4.56,1.69,6.55,10l4.44,2.56s-1.93-6.33-4.25-9.44c0,0,3.89,2.48,5.5,10.22l2.77,2.06s-1.5-4.59-2-5.87-.25-1.54-.25-1.54a16.41,16.41,0,0,1,3.48,8.25S462.64,314.92,463,314.62Z"
        transform="translate(-88.58 -43.42)" fill="#cfcfd0" opacity="0.1" />
    <path
        d="M846.78,211s-16.55-34.33-37.64-17.41c0,0-4.54,1.52-4.33,6.29,0,0,1.76-.9,3,2.77a17.34,17.34,0,0,0,1.85,3.71,8.58,8.58,0,0,0,4.28,3.39h0s9.08,7.18,26.36,2.29c0,0,4.83.82,5.63.24L840.44,208s-3,4.18-7.17,4.55c0,0,7.15-4.24,6.38-5.22-.16-.2-3-2.13-3-2.13s-5.2,7.23-11.71,7.6c0,0,9.21-3.9,10.63-8.34L831,201.82s-5.12,7.91-12.52,8.62c0,0,9.48-4.42,11.5-9.14l-4.79-2s-5.15,7.63-11.3,8.17c0,0,10.43-6.21,10.17-8.55,0,0-4.5-1.59-5.9-1.43,0,0-3.82,5.38-7.43,5.38,0,0,6.54-4.89,6.14-5.68,0,0-6.42-.5-9.81,1a19.46,19.46,0,0,1,9.83-2,10.71,10.71,0,0,0-5.13-3.39s3.58-1.36,6.69,3.53c0,0,5,.6,5.59,1.17,0,0-2.39-5.27-5.45-7.56,0,0,4.62.94,6.73,8.05l4.86,1.92s-2.79-7.13-5.36-9.38c0,0,4.56,1.69,6.54,10l4.45,2.56s-1.94-6.32-4.26-9.44c0,0,3.9,2.48,5.5,10.22l2.77,2.06s-1.49-4.59-2-5.87-.25-1.53-.25-1.53a16.45,16.45,0,0,1,3.47,8.25S846.47,211.32,846.78,211Z"
        transform="translate(-88.58 -43.42)" fill="#cfcfd0" opacity="0.1" />
    <path
        d="M899.67,380.81S883.12,346.47,862,363.39c0,0-4.54,1.52-4.33,6.29,0,0,1.76-.9,3,2.77a17.33,17.33,0,0,0,1.84,3.71,8.58,8.58,0,0,0,4.28,3.39h0s9.08,7.19,26.37,2.29c0,0,4.82.83,5.62.24l-5.52-4.27s-3,4.18-7.18,4.55c0,0,7.15-4.24,6.38-5.22-.16-.2-3-2.13-3-2.13s-5.2,7.23-11.71,7.61c0,0,9.21-3.91,10.63-8.35l-4.51-2.66s-5.12,7.92-12.52,8.62c0,0,9.48-4.42,11.5-9.14l-4.79-2s-5.15,7.62-11.3,8.17c0,0,10.44-6.21,10.18-8.56,0,0-4.51-1.59-5.91-1.43,0,0-3.82,5.38-7.43,5.38,0,0,6.54-4.89,6.14-5.68,0,0-6.42-.5-9.81,1a19.52,19.52,0,0,1,9.84-2,10.69,10.69,0,0,0-5.14-3.39s3.58-1.37,6.69,3.53c0,0,5,.59,5.59,1.16,0,0-2.39-5.26-5.44-7.56,0,0,4.62.94,6.73,8.05l4.85,1.92s-2.79-7.13-5.36-9.37c0,0,4.56,1.68,6.54,10l4.45,2.55s-1.94-6.32-4.26-9.44c0,0,3.9,2.48,5.51,10.23l2.77,2s-1.5-4.59-2-5.87-.25-1.53-.25-1.53a16.35,16.35,0,0,1,3.47,8.25S899.36,381.11,899.67,380.81Z"
        transform="translate(-88.58 -43.42)" fill="#cfcfd0" opacity="0.1" />
    <ellipse cx="201.95" cy="781.59" rx="22.99" ry="2.57" fill="#cfcfd0" opacity="0.1" />
    <ellipse cx="51.24" cy="737.91" rx="22.99" ry="2.57" fill="#cfcfd0" opacity="0.1" />
    <ellipse cx="316.83" cy="810.6" rx="22.99" ry="2.57" fill="#cfcfd0" opacity="0.1" />
    <ellipse cx="905.53" cy="747.41" rx="22.99" ry="2.57" fill="#cfcfd0" opacity="0.1" />
    <ellipse cx="714.22" cy="734.94" rx="22.99" ry="2.57" fill="#cfcfd0" opacity="0.1" />
    <ellipse cx="590.46" cy="793.66" rx="27.19" ry="4.67" fill="#cfcfd0" opacity="0.1" />
    <path
        d="M691.17,790.14s-37.86,19.56-18.3,42.6c0,0,1.84,5,7.16,4.65,0,0-1.06-1.94,3-3.49a19.51,19.51,0,0,0,4.09-2.17,9.61,9.61,0,0,0,3.66-4.89h0s7.74-10.36,1.74-29.53c0,0,.78-5.42.1-6.3l-4.6,6.31s4.75,3.19,5.3,7.88c0,0-5-7.87-6-7-.22.18-2.28,3.45-2.28,3.45s8.24,5.59,8.85,12.85c0,0-4.64-10.17-9.65-11.62L681.37,808s9,5.48,10,13.72c0,0-5.23-10.45-10.57-12.56l-2.11,5.41s8.68,5.52,9.48,12.38c0,0-7.26-11.47-9.87-11.11,0,0-1.64,5.08-1.42,6.65,0,0,6.13,4.1,6.24,8.13,0,0-5.66-7.15-6.53-6.68,0,0-.36,7.19,1.38,10.93,0,0-3-5.34-2.51-10.93a12,12,0,0,0-3.63,5.84s-1.63-3.95,3.74-7.59c0,0,.51-5.59,1.13-6.28,0,0-5.81,2.84-8.28,6.32,0,0,.91-5.19,8.79-7.77l2-5.48s-7.88,3.34-10.31,6.28c0,0,1.75-5.15,10.93-7.62l2.72-5s-7,2.36-10.42,5c0,0,2.65-4.43,11.26-6.47l2.21-3.15s-5.08,1.81-6.5,2.46-1.7.33-1.7.33a18.39,18.39,0,0,1,9.11-4.14S691.52,790.48,691.17,790.14Z"
        transform="translate(-88.58 -43.42)" fill="#cfcfd0" />
   <path
        d="M1054.24,699.53l-.3,2.42-.42,3.42-.17,1.43-.42,3.42-.18,1.43-.41,3.41-4.75,38.9c-.42,3.47-6.09,6.18-12.94,6.18H1010c-6.85,0-12.51-2.71-12.94-6.18l-4.75-38.9-.42-3.41-.17-1.43-.42-3.42-.18-1.43-.41-3.42-.3-2.42c-.23-2,2.83-3.62,6.71-3.62h50.42C1051.41,695.91,1054.48,697.56,1054.24,699.53Z"
        transform="translate(-88.58 -43.42)" fill="#65617d" />
    <polygon points="965.36 658.53 964.95 661.95 902.55 661.95 902.13 658.53 965.36 658.53"
        fill="#9d9cb5" />
    <polygon points="964.77 663.38 964.36 666.8 903.14 666.8 902.72 663.38 964.77 663.38"
        fill="#9d9cb5" />
    <polygon points="964.18 668.23 963.76 671.65 903.73 671.65 903.32 668.23 964.18 668.23"
        fill="#9d9cb5" />
</svg>