<svg id="8d45fc85-8f50-4d13-8ede-4efe67a9dde5" data-name="Layer 1"
    xmlns="http://www.w3.org/2000/svg" xmlns:xlink="http://www.w3.org/1999/xlink" width="1078.5"
    height="780.36" viewBox="0 0 1078.5 780.36">
    <defs>
        <linearGradient id="cb20406f-0184-40ae-b4eb-eddd07e14298" x1="600" y1="724.97" x2="600"
            y2="197.23" gradientUnits="userSpaceOnUse">
            <stop offset="0" stop-color="gray" stop-opacity="0.25" />
            <stop offset="0.54" stop-color="gray" stop-opacity="0.12" />
            <stop offset="1" stop-color="gray" stop-opacity="0.1" />
        </linearGradient>
        <linearGradient id="bd5348f2-d6e7-4b10-83c1-a84cbaf770d6" x1="906.56" y1="809.07"
            x2="906.56" y2="164.43" gradientTransform="matrix(-1, 0, 0, 1, 1767, 0)"
            xlink:href="#cb20406f-0184-40ae-b4eb-eddd07e14298" />
    </defs>
    <title>Bibliophile</title>
    <path
        d="M991.68,507.48C957.58,563.25,963.61,639,978.22,698.73c4.89,20,10.54,41.09,6.19,63.5-5.32,27.4-24.38,49-43.63,61.36-35.1,22.55-75.06,22.09-104-1.19-25.05-20.12-41.45-55.32-67-74.35-42.81-31.85-101.77-12.18-153.06,18-36.29,21.34-76.23,48.35-109.6,33.3-23.48-10.59-38-40.69-44.73-73.49-3.24-15.83-5.16-33.13-12.69-45.18-4.48-7.16-10.66-11.94-17.07-15.85-58.51-35.67-138-5.3-194.39-45.73-38.09-27.31-59.58-83.94-66.45-144.57S171,348.95,178.58,285c5.42-45.44,12.7-94.1,36.34-131.15,25-39.19,64.24-56.81,98.26-53.3s63.48,25.34,88.84,52c31.7,33.32,60.22,75.93,101.38,86.54,28,7.23,58.72-1.41,88.55-6.35,49.87-8.26,99-6.16,147.76-3.35,46.69,2.69,93.67,6.11,137.12,22.63,30.75,11.69,54.28,36.2,82.95,52.08,18.69,10.35,39.82,11.58,57.22,25.42,21.43,17,39.9,48.6,31.12,88.61C1039.77,456.18,1009.77,477.89,991.68,507.48Z"
        transform="translate(-60.75 -59.82)" fill="#cfcfd0" opacity="0.1" />
    <path
        d="M355.05,337.12s-147.14-32.9,40.08-225.39c0,0,80.7,76.49,51.1,171.57-11.9,38.23-50.2,61.83-89,54.27Z"
        transform="translate(-60.75 -59.82)" fill="#cfcfd0" />
    <path
        d="M355.05,337.12c-3.23-.72-144-36.15,40.08-225.39,0,0,80.7,76.49,51.1,171.57-11.9,38.23-50.2,61.83-89,54.27Z"
        transform="translate(-60.75 -59.82)" fill="#fff" opacity="0.4" />
    <path d="M357,338.22s77.72-117.08,38.15-226.48" transform="translate(-60.75 -59.82)" fill="none"
        stroke="#535461" stroke-miterlimit="10" />
    <path
        d="M960.36,450.81S935,348.7,973.43,276c16.14-30.51,22.55-65.27,17.16-99.36a268.09,268.09,0,0,0-12.14-47.5"
        transform="translate(-60.75 -59.82)" fill="none" stroke="#535461" stroke-miterlimit="10"
        stroke-width="2" />
    <path
        d="M1002.4,83.18c-.53,12.36-24.44,47.23-24.44,47.23s-20.84-36.79-20.31-49.15a22.4,22.4,0,0,1,44.75,1.92Z"
        transform="translate(-60.75 -59.82)" fill="#cfcfd0" />
    <path
        d="M1036.46,153.21c-7.16,10.09-46.19,26.37-46.19,26.37s2.5-42.21,9.66-52.3a22.4,22.4,0,1,1,36.52,25.93Z"
        transform="translate(-60.75 -59.82)" fill="#cfcfd0" />
    <path
        d="M1029.83,270.11c-11.27,5.09-53.18-.55-53.18-.55s23.47-35.17,34.74-40.27a22.4,22.4,0,0,1,18.44,40.82Z"
        transform="translate(-60.75 -59.82)" fill="#cfcfd0" />
    <path
        d="M1004.9,357.43c-10.25,6.92-52.51,8.44-52.51,8.44s17.19-38.63,27.44-45.56a22.4,22.4,0,0,1,25.07,37.12Z"
        transform="translate(-60.75 -59.82)" fill="#cfcfd0" />
    <path
        d="M943.19,180c8.49,9,49.41,19.68,49.41,19.68s-8.36-41.45-16.85-50.44A22.4,22.4,0,0,0,943.19,180Z"
        transform="translate(-60.75 -59.82)" fill="#cfcfd0" />
    <path d="M915.33,282.45c10.8,6,53,4,53,4S948,249.39,937.19,243.36a22.4,22.4,0,0,0-21.86,39.09Z"
        transform="translate(-60.75 -59.82)" fill="#cfcfd0" />
    <path
        d="M901.92,385.78c9.62,7.77,51.59,12.9,51.59,12.9s-13.82-40-23.44-47.74a22.4,22.4,0,0,0-28.15,34.84Z"
        transform="translate(-60.75 -59.82)" fill="#cfcfd0" />
    <path
        d="M1002.4,83.18c-.53,12.36-24.44,47.23-24.44,47.23s-20.84-36.79-20.31-49.15a22.4,22.4,0,0,1,44.75,1.92Z"
        transform="translate(-60.75 -59.82)" fill="#fc6681" />
    <path
        d="M1036.46,153.21c-7.16,10.09-46.19,26.37-46.19,26.37s2.5-42.21,9.66-52.3a22.4,22.4,0,1,1,36.52,25.93Z"
        transform="translate(-60.75 -59.82)" fill="#fc6681" />
    <path
        d="M1029.83,270.11c-11.27,5.09-53.18-.55-53.18-.55s23.47-35.17,34.74-40.27a22.4,22.4,0,0,1,18.44,40.82Z"
        transform="translate(-60.75 -59.82)" fill="#fc6681" />
    <path
        d="M1004.9,357.43c-10.25,6.92-52.51,8.44-52.51,8.44s17.19-38.63,27.44-45.56a22.4,22.4,0,0,1,25.07,37.12Z"
        transform="translate(-60.75 -59.82)" fill="#fc6681" />
    <path
        d="M943.19,180c8.49,9,49.41,19.68,49.41,19.68s-8.36-41.45-16.85-50.44A22.4,22.4,0,0,0,943.19,180Z"
        transform="translate(-60.75 -59.82)" fill="#fc6681" />
    <path d="M915.33,282.45c10.8,6,53,4,53,4S948,249.39,937.19,243.36a22.4,22.4,0,0,0-21.86,39.09Z"
        transform="translate(-60.75 -59.82)" fill="#fc6681" />
    <path
        d="M901.92,385.78c9.62,7.77,51.59,12.9,51.59,12.9s-13.82-40-23.44-47.74a22.4,22.4,0,0,0-28.15,34.84Z"
        transform="translate(-60.75 -59.82)" fill="#fc6681" />
    <path d="M867.52,384.86s106.36-89.13,130-134.08,53.77-83.67,53.77-83.67"
        transform="translate(-60.75 -59.82)" fill="none" stroke="#535461" stroke-miterlimit="10"
        stroke-width="2" />
    <path d="M1037.34,267.57l-46-10.38S1002.18,305.73,1037.34,267.57Z"
        transform="translate(-60.75 -59.82)" fill="#cfcfd0" />
    <path d="M967,218l26.48,39.66S941.74,261.42,967,218Z" transform="translate(-60.75 -59.82)"
        fill="#cfcfd0" />
    <path d="M1055.44,230.29l-42.06-7.38S1039.81,263.1,1055.44,230.29Z"
        transform="translate(-60.75 -59.82)" fill="#cfcfd0" />
    <path d="M993.24,194.86,1014,222S977.25,225.46,993.24,194.86Z"
        transform="translate(-60.75 -59.82)" fill="#cfcfd0" />
    <path d="M1035.14,189.45s35.85,1.71,40,5.13-5.34,23.48-19,20.21S1035.14,189.45,1035.14,189.45Z"
        transform="translate(-60.75 -59.82)" fill="#cfcfd0" />
    <path
        d="M1020.82,157.44s14.63,26.66,14.08,31.73-22.29,10.77-26.69-8.45S1020.82,157.44,1020.82,157.44Z"
        transform="translate(-60.75 -59.82)" fill="#cfcfd0" />
    <circle cx="1059.3" cy="171.73" r="10" transform="translate(515.02 1069.93) rotate(-72.43)"
        fill="#ffd037" />
    <circle cx="1043.65" cy="161.53" r="10" transform="translate(513.82 1047.89) rotate(-72.43)"
        fill="#ffd037" />
    <path d="M389.61,407.74s43-32-11-144c0,0-72-89,0-173,0,0-157,4-154,150s78.5,167,78.5,167Z"
        transform="translate(-60.75 -59.82)" fill="#cfcfd0" />
    <path
        d="M349.45,407.74s-10.83-77-39.83-124A100.81,100.81,0,0,1,297.43,253c-9.69-42.63,4.13-87.21,35.44-117.72l45.75-44.57"
        transform="translate(-60.75 -59.82)" fill="none" stroke="#535461" stroke-miterlimit="10"
        stroke-width="2" />
    <path
        d="M479.16,150.69s9.88,12.92-4.56,32.42-26.34,36-21.53,48.12c0,0,21.78-36.22,39.51-36.73S498.66,172.47,479.16,150.69Z"
        transform="translate(-60.75 -59.82)" fill="#cfcfd0" />
    <path
        d="M479.16,150.69a16,16,0,0,1,2,4.05c17.3,20.32,26.51,39.29,9.89,39.77-15.49.44-34.07,28.14-38.52,35.13a15,15,0,0,0,.53,1.59s21.78-36.22,39.51-36.73S498.66,172.47,479.16,150.69Z"
        transform="translate(-60.75 -59.82)" opacity="0.1" />
    <path
        d="M497.52,167.15c0,4.55-.51,8.23-1.14,8.23s-1.14-3.69-1.14-8.23.64-2.41,1.27-2.41S497.52,162.61,497.52,167.15Z"
        transform="translate(-60.75 -59.82)" fill="#ffd037" />
    <path
        d="M503.82,172.58c-4,2.18-7.47,3.49-7.77,2.94s2.69-2.76,6.68-4.94,2.42-.59,2.72,0S507.81,170.4,503.82,172.58Z"
        transform="translate(-60.75 -59.82)" fill="#ffd037" />
    <path
        d="M427,150.69s-9.88,12.92,4.56,32.42,26.34,36,21.53,48.12c0,0-21.78-36.22-39.51-36.73S407.48,172.47,427,150.69Z"
        transform="translate(-60.75 -59.82)" fill="#cfcfd0" />
    <path
        d="M427,150.69a16,16,0,0,0-2,4.05c-17.3,20.32-26.51,39.29-9.89,39.77,15.49.44,34.07,28.14,38.52,35.13a15,15,0,0,1-.53,1.59S431.29,195,413.56,194.51,407.48,172.47,427,150.69Z"
        transform="translate(-60.75 -59.82)" opacity="0.1" />
    <path
        d="M408.62,167.15c0,4.55.51,8.23,1.14,8.23s1.14-3.69,1.14-8.23-.64-2.41-1.27-2.41S408.62,162.61,408.62,167.15Z"
        transform="translate(-60.75 -59.82)" fill="#ffd037" />
    <path
        d="M402.32,172.58c4,2.18,7.47,3.49,7.77,2.94s-2.69-2.76-6.68-4.94-2.42-.59-2.72,0S398.33,170.4,402.32,172.58Z"
        transform="translate(-60.75 -59.82)" fill="#ffd037" />
    <path
        d="M1139.25,705.61l-87.61-385.48-32.55,0c-1.3-14.73-2.17-29-2.5-42.44,0,0-118,25.82-212.1-48.88s-204.73,6.46-204.73,6.46l-.43-.31,0-.15V235c-7.68-5.44-113.66-78.07-204.27-6.13-94.06,74.7-212.1,48.88-212.1,48.88-.33,13.61-1.21,28-2.54,42.87l-30.2,0L60.75,707s363.7,13.62,491.15,1.06c4.57,9.66,24.27,16.92,47.87,16.92,26.52,0,48.09-9.17,48.84-20.6C747.82,711.93,961.3,724,1139.25,705.61Z"
        transform="translate(-60.75 -59.82)" fill="url(#cb20406f-0184-40ae-b4eb-eddd07e14298)" />
    <path
        d="M159.59,323.52,72,701.86s482.17,18.06,521-7.22c0,0,299.33,30.25,535,5.87l-85.78-377.43Z"
        transform="translate(-60.75 -59.82)" fill="#e2e2ec" />
    <path
        d="M189.39,336.59,107.73,689.32s449.54,16.84,485.74-6.73c0,0,279.07,28.2,498.79,5.47l-80-351.89Z"
        transform="translate(-60.75 -59.82)" opacity="0.1" />
    <path
        d="M1007.91,281.54s-115.58,25.28-207.68-47.86S599.77,240,599.77,240s-108.35-79.46-200.45-6.32-207.68,47.86-207.68,47.86C188,428.72,119.41,667.1,119.41,667.1s126.41,34.31,293.46-35.21,186.91,24.38,186.91,24.38,19.86-93.91,186.91-24.38,293.46,35.21,293.46,35.21S1011.52,428.72,1007.91,281.54Z"
        transform="translate(-60.75 -59.82)" fill="#f1f2fb" />
    <path d="M376.75,659s152.6-34.31,223,16.25c0,0,67.72-61.4,224.83-13.54"
        transform="translate(-60.75 -59.82)" opacity="0.1" />
    <ellipse cx="539.02" cy="638.88" rx="47.86" ry="20.77" fill="#e8eaf8" />
    <path d="M599.32,239.55s34.31,174.27.9,419.87" transform="translate(-60.75 -59.82)"
        opacity="0.1" />
    <path d="M224.7,336.17s71.87,16.7,134.08,0,176.43-71.33,214,0"
        transform="translate(-60.75 -59.82)" fill="none" stroke="#000" stroke-miterlimit="10"
        stroke-width="4" opacity="0.1" />
    <path d="M224.7,366.87s71.87,16.7,134.08,0,196.91-15.8,214,0"
        transform="translate(-60.75 -59.82)" fill="none" stroke="#000" stroke-miterlimit="10"
        stroke-width="4" opacity="0.1" />
    <path d="M224.7,421s71.87,16.7,134.08,0,176.43-71.33,214,0" transform="translate(-60.75 -59.82)"
        fill="none" stroke="#000" stroke-miterlimit="10" stroke-width="4" opacity="0.1" />
    <path d="M224.7,451.74s71.87,16.7,134.08,0,196.91-15.8,214,0"
        transform="translate(-60.75 -59.82)" fill="none" stroke="#000" stroke-miterlimit="10"
        stroke-width="4" opacity="0.1" />
    <path d="M974.85,336.17s-71.87,16.7-134.08,0-176.43-71.33-214,0"
        transform="translate(-60.75 -59.82)" fill="none" stroke="#000" stroke-miterlimit="10"
        stroke-width="4" opacity="0.1" />
    <path d="M974.85,366.87s-71.87,16.7-134.08,0-196.91-15.8-214,0"
        transform="translate(-60.75 -59.82)" fill="none" stroke="#000" stroke-miterlimit="10"
        stroke-width="4" opacity="0.1" />
    <path d="M974.85,421s-71.87,16.7-134.08,0-176.43-71.33-214,0"
        transform="translate(-60.75 -59.82)" fill="none" stroke="#000" stroke-miterlimit="10"
        stroke-width="4" opacity="0.1" />
    <path d="M974.85,451.74s-71.87,16.7-134.08,0-196.91-15.8-214,0"
        transform="translate(-60.75 -59.82)" fill="none" stroke="#000" stroke-miterlimit="10"
        stroke-width="4" opacity="0.1" />
</svg>